<svg width="50" height="50" viewBox="0 0 50 50" fill="none" xmlns="http://www.w3.org/2000/svg">
<g clip-path="url(#clip0_268_184)">
<path fill-rule="evenodd" clip-rule="evenodd" d="M25.0207 0C11.1849 0 0 11.4583 0 25.6339C0 36.9651 7.16655 46.5568 17.1084 49.9516C18.3514 50.2068 18.8067 49.4 18.8067 48.7214C18.8067 48.1271 18.7658 46.0901 18.7658 43.9677C11.8056 45.4958 10.3562 40.912 10.3562 40.912C9.23769 37.9412 7.58037 37.1776 7.58037 37.1776C5.30231 35.6073 7.7463 35.6073 7.7463 35.6073C10.2733 35.7771 11.5992 38.2385 11.5992 38.2385C13.8358 42.1427 17.4398 41.0396 18.8897 40.3604C19.0966 38.7052 19.7599 37.5594 20.4641 36.9229C14.9128 36.3286 9.07227 34.1219 9.07227 24.2755C9.07227 21.4745 10.0658 19.1828 11.6402 17.4005C11.3918 16.7641 10.5217 14.1323 11.8891 10.6099C11.8891 10.6099 14.0017 9.93073 18.7653 13.2411C20.8047 12.68 22.9079 12.3946 25.0207 12.3922C27.1333 12.3922 29.2869 12.6896 31.2756 13.2411C36.0396 9.93073 38.1523 10.6099 38.1523 10.6099C39.5197 14.1323 38.6491 16.7641 38.4007 17.4005C40.0165 19.1828 40.9691 21.4745 40.9691 24.2755C40.9691 34.1219 35.1285 36.2859 29.5358 36.9229C30.4475 37.7292 31.2341 39.2568 31.2341 41.676C31.2341 45.1135 31.1931 47.8724 31.1931 48.7208C31.1931 49.4 31.649 50.2068 32.8914 49.9521C42.8333 46.5563 49.9999 36.9651 49.9999 25.6339C50.0409 11.4583 38.815 0 25.0207 0Z" fill="white"/>
</g>
<defs>
<clipPath id="clip0_268_184">
<rect width="50" height="50" fill="white"/>
</clipPath>
</defs>
</svg>
