<svg width="138" height="48" viewBox="0 0 138 48" fill="none" xmlns="http://www.w3.org/2000/svg">
<g clip-path="url(#clip0_268_695)">
<path d="M0.474238 13.1012L7.73905 13.0788C13.9862 13.0565 17.9469 15.0024 17.9469 18.8497C17.9469 22.697 14.0309 24.5983 7.73905 24.5983H6.81075V27.2233C6.81075 27.6084 7.03766 27.9935 7.39867 28.2187C7.53448 28.2875 7.64794 28.3768 7.78374 28.468C8.16881 28.7396 7.96425 29.441 7.48978 29.441H0.496586C0.0221216 29.441 -0.182448 28.7396 0.202624 28.468C0.316083 28.3768 0.496586 28.2875 0.654741 28.1963C0.993399 28.0382 1.22032 27.6755 1.26501 27.3145V15.3188C1.26501 14.9113 1.01575 14.5263 0.654741 14.3234C0.474238 14.2323 0.316083 14.1429 0.202624 14.0741C-0.182448 13.8025 0.0221216 13.1012 0.474238 13.1012ZM6.81075 22.5612C6.81075 22.9686 7.08236 23.2403 7.48978 23.2403C10.8385 23.2403 12.4012 21.8598 12.4012 18.8721C12.4012 15.8843 10.885 14.4592 7.48978 14.4369C7.08236 14.4369 6.81075 14.7308 6.81075 15.1383V22.5612Z" fill="#FA2454"/>
<path d="M19.0307 19.5065C20.0484 18.9186 21.5423 18.5558 22.8557 18.5558C24.1691 18.5558 25.0956 18.7363 25.2091 20.3213C25.6853 19.4841 26.5448 18.714 27.9699 18.5335C31.0935 18.1484 33.1306 19.7334 33.1065 21.5883C33.0842 22.8552 32.1559 23.8747 30.2322 23.6924C27.1087 23.3985 29.4862 19.8451 27.6296 19.9122C26.1357 19.9792 25.7059 22.2209 25.7059 23.4879V27.2217C25.7059 27.6068 25.9552 27.9918 26.2938 28.217C26.4296 28.2858 26.5431 28.3752 26.6789 28.4663C27.0863 28.7379 26.8594 29.4393 26.3849 29.4393H19.9126C19.4605 29.4393 19.2336 28.7379 19.6187 28.4663C19.7545 28.3752 19.9126 28.2858 20.0708 28.1947C20.4559 28.0142 20.6811 27.6291 20.6811 27.2217V20.9522C20.6811 20.5895 20.4541 20.5001 20.1378 20.5001C19.8439 20.5001 19.4811 20.5672 19.1872 20.5672C18.6886 20.5225 18.5528 19.7523 19.029 19.503L19.0307 19.5065Z" fill="#FA2454"/>
<path d="M40.2133 18.5334C43.9935 18.5334 46.4604 20.3213 46.4604 24.1462C46.4604 27.9712 43.9935 29.759 40.2133 29.759C36.433 29.759 33.9902 27.7907 33.9902 24.1462C33.9902 20.5018 36.4571 18.5334 40.2133 18.5334ZM39.0357 24.3508C39.5789 27.6549 39.9176 28.6502 40.937 28.4697C41.9547 28.2892 41.9547 27.2474 41.4115 23.9434C40.8459 20.6393 40.5296 19.6663 39.4878 19.8468C38.4701 20.0273 38.4701 21.0467 39.0357 24.3508Z" fill="#FA2454"/>
<path d="M47.2283 23.309C47.2283 20.2078 49.9221 18.5334 54.0186 18.5334C56.4185 18.2618 57.6631 17.2888 58.6808 16.1353C58.8836 15.886 59.1105 15.7966 59.3374 15.7966C60.2657 15.7966 61.0806 17.5174 60.4239 18.5575C59.9941 19.2365 58.7048 19.1007 57.6854 19.0783C59.6538 19.7797 60.809 21.1601 60.809 23.3107C60.809 26.5477 58.1152 28.0639 54.0186 28.0639C53.6112 28.0639 53.2261 28.0416 52.8651 28.0193C52.0056 28.1998 51.1443 28.6983 51.4159 29.2862C51.5071 29.4908 51.7787 29.5578 52.162 29.5578C53.3155 29.5578 55.6019 28.8564 57.5702 28.8564C59.1088 28.8564 60.4669 29.2862 60.8966 30.8248C61.5069 32.9066 60.0818 35.3511 55.736 35.3511C54.6942 35.3511 54.5361 34.3781 55.1928 34.3558C56.4597 34.3111 58.9489 34.0395 58.5879 32.9066C58.4968 32.635 58.2476 32.5439 57.8865 32.5439C56.5972 32.5439 53.8123 33.7661 50.7799 33.7214C48.8339 33.6767 47.5429 32.5903 47.4982 30.8918C47.4758 29.3756 48.4712 28.198 50.553 27.5654C48.4712 26.8417 47.2266 25.4149 47.2266 23.3107L47.2283 23.309ZM52.7053 23.4671C53.3155 26.2744 53.6782 27.1116 54.8094 26.9758C55.9182 26.8176 55.9182 25.934 55.3079 23.1285C54.6977 20.323 54.3349 19.5081 53.2261 19.6439C52.1173 19.8021 52.1173 20.6616 52.7053 23.4689V23.4671Z" fill="#FA2454"/>
<path d="M61.7807 19.5065C62.7984 18.9186 64.2923 18.5558 65.6057 18.5558C66.9191 18.5558 67.8456 18.7363 67.9591 20.3213C68.4336 19.4841 69.2948 18.714 70.7199 18.5335C73.8435 18.1484 75.8806 19.7334 75.8565 21.5883C75.8342 22.8552 74.9059 23.8747 72.9822 23.6924C69.8587 23.3985 72.2362 19.8451 70.3796 19.9122C68.8857 19.9792 68.4559 22.2209 68.4559 23.4879V27.2217C68.4559 27.6068 68.7052 27.9918 69.0438 28.217C69.1796 28.2858 69.2931 28.3752 69.4289 28.4663C69.8363 28.7379 69.6094 29.4393 69.1349 29.4393H62.6626C62.2105 29.4393 61.9836 28.7379 62.3687 28.4663C62.5045 28.3752 62.6626 28.2858 62.8208 28.1947C63.2059 28.0142 63.4311 27.6291 63.4311 27.2217V20.9522C63.4311 20.5895 63.2041 20.5001 62.8878 20.5001C62.5939 20.5001 62.2311 20.5672 61.9372 20.5672C61.4386 20.5225 61.3028 19.7523 61.779 19.503L61.7807 19.5065Z" fill="#FA2454"/>
<path d="M82.0578 22.7882C82.8726 22.7882 83.574 22.8793 83.9814 23.0151V22.2449C83.9814 20.5241 83.6428 19.7093 82.6457 19.687C81.4922 19.6646 81.3323 20.366 81.0848 21.2479C80.9266 21.8358 80.1341 22.1538 79.3417 22.1538C78.391 22.1538 77.418 21.7241 77.4851 20.8645C77.5762 19.4841 79.7027 18.5335 82.9173 18.5558C86.4019 18.5558 89.1404 19.8004 89.1404 23.0598C89.118 24.6207 89.118 26.1369 89.118 27.0429C89.118 27.7443 89.2538 28.1517 89.6389 28.1964C90.0016 28.2411 90.2492 27.8336 90.5449 27.9024C91.0881 28.0382 90.7477 29.7814 87.3078 29.7349C85.6335 29.7126 84.253 29.0559 84.0038 27.7202C83.3024 29.0559 81.7174 29.7573 80.0877 29.7573C78.0283 29.7573 76.4674 28.6932 76.2851 26.9965C75.9688 23.6701 79.5668 22.7864 82.0561 22.7864L82.0578 22.7882ZM82.6921 27.6085C83.7339 27.5861 83.9367 26.5908 83.9591 25.4132L83.9814 24.1686C83.8233 24.0998 83.3935 23.964 82.9397 23.964C82.2383 23.964 81.4234 24.2803 81.2876 25.6848C81.1965 26.7936 81.6951 27.6531 82.6904 27.6085H82.6921Z" fill="#FA2454"/>
<path d="M91.5151 19.5063C92.5328 18.9184 94.0043 18.5557 95.3177 18.5557C96.0414 18.5557 97.0608 18.6004 97.4442 19.3482C98.2143 18.9407 99.0962 18.6691 100.069 18.578C103.578 18.3287 105.909 20.5928 105.909 24.1461C105.909 27.6994 103.397 29.9858 100.183 29.7589C99.5724 29.7142 98.9157 29.5096 98.2591 29.2156V32.3839C98.2591 32.769 98.5083 33.154 98.847 33.3792C98.9828 33.448 99.0962 33.5374 99.232 33.6285C99.6395 33.9001 99.4125 34.6015 98.9381 34.6015H92.397C91.9449 34.6015 91.718 33.9001 92.103 33.6285C92.2389 33.5374 92.397 33.448 92.5552 33.3569C92.9402 33.1764 93.1654 32.769 93.1654 32.3616V20.9538C93.1654 20.591 92.9385 20.5017 92.6222 20.5017C92.3282 20.5017 91.9655 20.5687 91.6716 20.5687C91.173 20.524 91.0372 19.7539 91.5134 19.5046L91.5151 19.5063ZM98.2591 24.3489C98.7335 27.6083 99.1409 28.6484 100.16 28.4678C101.202 28.2873 101.247 27.2456 100.635 23.9415C100.069 20.9538 99.7753 19.8673 98.7335 20.0495C97.7158 20.2077 97.8052 21.3388 98.2591 24.3489Z" fill="#FA2454"/>
<path d="M106.339 13.4638C107.335 12.8759 109.1 12.5132 110.572 12.5132C112.382 12.5132 113.083 12.7624 113.083 14.7996V20.7286C113.92 19.4393 115.37 18.5781 116.999 18.5334C119.874 18.4887 121.027 19.5287 121.027 22.0179V26.9964H121.049V27.2233C121.049 27.6084 121.276 27.9935 121.637 28.2186C121.751 28.2874 121.887 28.3768 122.022 28.4679C122.408 28.7395 122.181 29.4409 121.728 29.4409H117.995C116.32 29.4409 115.98 28.3545 115.935 27.201L115.958 23.5342C115.958 22.3119 116.071 20.8627 115.007 20.8868C113.943 20.9091 113.128 22.4254 113.083 23.6253V27.2233C113.083 27.6084 113.333 27.9935 113.671 28.2186C113.807 28.2874 113.92 28.3768 114.056 28.4679C114.464 28.7395 114.237 29.4409 113.762 29.4409H107.221C106.769 29.4409 106.542 28.7395 106.927 28.4679C107.063 28.3768 107.221 28.2874 107.379 28.1963C107.764 28.0158 107.99 27.6307 107.99 27.2233V14.9113C107.99 14.5486 107.763 14.4592 107.446 14.4592C107.152 14.4592 106.79 14.5279 106.496 14.5279C105.997 14.4832 105.861 13.7131 106.338 13.4638H106.339Z" fill="#FA2454"/>
<path d="M122.611 18.8497H129.604C130.056 18.8497 130.261 19.5511 129.898 19.8004C129.785 19.8915 129.671 19.9585 129.535 20.0497C129.219 20.2525 129.083 20.5705 129.173 20.9092C130.146 23.1956 131.21 25.616 131.504 26.8606L133.904 21.2925H133.881L134.017 20.9986C134.153 20.6359 134.039 20.2749 133.678 20.0479C133.543 19.9568 133.429 19.8898 133.316 19.7987C132.931 19.5494 133.135 18.848 133.61 18.848H136.506C136.981 18.848 137.208 19.5494 136.823 19.7987C136.664 19.9121 136.529 20.0015 136.393 20.0703C136.054 20.2731 135.736 20.5912 135.578 20.9075L131.686 29.7332C130.261 32.9926 129.4 34.6669 126.345 34.7116C123.651 34.7563 121.91 33.1507 122.339 31.2494C122.542 30.3211 123.403 29.9137 124.263 29.9137C125.305 29.9137 126.367 30.5016 126.278 31.4299C126.164 32.7433 126.957 33.4447 127.409 33.3983C127.476 33.3983 127.567 33.3759 127.636 33.3536C129.515 32.6298 125.961 25.7484 123.63 20.8387C123.428 20.5224 123.132 20.2508 122.838 20.0926C122.633 20.0015 122.453 19.9121 122.295 19.7987C121.91 19.5494 122.136 18.848 122.611 18.848V18.8497Z" fill="#FA2454"/>
<path fill-rule="evenodd" clip-rule="evenodd" d="M13.0408 25.1358C10.6756 28.1389 9.66003 31.1049 10.1511 33.89C10.6422 36.675 12.611 39.1148 15.8607 41.1278C19.11 43.1407 23.5976 44.698 29.0217 45.7228C39.8666 47.7719 54.3619 47.6752 69.9293 44.9302C85.4968 42.1853 99.151 37.3185 108.641 31.6838C113.387 28.8656 117.072 25.8674 119.437 22.8646C121.802 19.8615 122.818 16.8955 122.326 14.1104C121.835 11.3254 119.867 8.88556 116.617 6.87252C113.368 4.8597 108.88 3.30239 103.456 2.27753C92.611 0.228439 78.1157 0.325184 62.5483 3.07014C46.9808 5.8151 33.3266 10.6819 23.8366 16.3166C19.0901 19.1348 15.4058 22.133 13.0408 25.1358ZM23.3978 15.5775C32.9979 9.87742 46.7563 4.98189 62.399 2.22366C78.0417 -0.534564 92.6448 -0.639925 103.615 1.43294C109.099 2.46907 113.699 4.05376 117.07 6.14182C120.44 8.22967 122.624 10.8497 123.173 13.9612C123.722 17.0726 122.565 20.2817 120.112 23.3964C117.659 26.5114 113.879 29.5737 109.08 32.4229C99.4797 38.1229 85.7213 43.0185 70.0786 45.7767C54.4359 48.5349 39.8329 48.6403 28.8621 46.5674C23.3784 45.5313 18.7788 43.9466 15.408 41.8585C12.0376 39.7707 9.85327 37.1507 9.30463 34.0392C8.75599 30.9277 9.91248 27.7187 12.3656 24.604C14.8189 21.4889 18.5991 18.4267 23.3978 15.5775Z" fill="#FA2454"/>
</g>
<defs>
<clipPath id="clip0_268_695">
<rect width="138" height="48" fill="white"/>
</clipPath>
</defs>
</svg>
